<?xml version="1.0" encoding="utf-8"?>
<!-- Generator: Adobe Illustrator 23.0.6, SVG Export Plug-In . SVG Version: 6.00 Build 0)  -->
<svg version="1.1" id="Layer_1" xmlns="http://www.w3.org/2000/svg" xmlns:xlink="http://www.w3.org/1999/xlink" x="0px" y="0px"
	 viewBox="0 0 341 336" style="enable-background:new 0 0 341 336;" xml:space="preserve">
<style type="text/css">
	.st0{fill:#D00000;}
	.st1{fill:#FFFFFF;}
</style>
<g>
	<rect x="0.33" y="-0.44" class="st0" width="341" height="336"/>
	<path class="st1" d="M173.03,145.37l68.73-68.09c-1.36-3.3-1.46-3.54-2.82-6.84h-27.28l-89.37,92.6v-88.6c-1.56-1.56-2.44-2.44-4-4
		H99.04c-1.56,1.56-2.44,2.44-4,4v186.26c1.56,1.56,2.44,2.44,4,4h19.25c1.56-1.56,2.44-2.44,4-4v-65.05l29.83-29.55l65.55,98.35
		h25.62c1.51-2.79,1.84-3.39,3.35-6.18L173.03,145.37z"/>
</g>
</svg>
